<svg width="300" height="300" xmlns="http://www.w3.org/2000/svg">
  <defs>
    <pattern id="chat-bg" patternUnits="userSpaceOnUse" width="100" height="100">
      <g fill="none" stroke="rgba(255,255,255,0.05)" stroke-width="1.5">
        <!-- Planet with rings -->
        <circle cx="20" cy="25" r="8" />
        <ellipse cx="20" cy="25" rx="14" ry="4" transform="rotate(-20 20 25)" />
        
        <!-- Small rocket -->
        <path d="M75 15 L 80 20 L 75 25" stroke-linecap="round" stroke-linejoin="round"/>
        <path d="M70 20 L 80 20" />
        <path d="M72 17 Q 75 20 72 23" />
        
        <!-- Star -->
        <path d="M50 40 L 52 45 L 57 46 L 53 50 L 54 55 L 50 52 L 46 55 L 47 50 L 43 46 L 48 45 Z" />
        
        <!-- Comet -->
        <circle cx="15" cy="80" r="2" fill="rgba(255,255,255,0.05)" stroke="none"/>
        <path d="M17 80 Q 25 75 35 72" />
        <path d="M17 80 Q 26 80 34 82" />
        
        <!-- Small moon -->
        <circle cx="85" cy="85" r="5" />
        <circle cx="88" cy="83" r="4" fill="#0a0a1a" stroke="none" />
        
        <!-- Three stars -->
        <path d="M90 50 L 92 52 L 90 54 L 88 52 Z" />
        <path d="M85 55 L 87 57 L 85 59 L 83 57 Z" />
        <path d="M95 55 L 97 57 L 95 59 L 93 57 Z" />
      </g>
    </pattern>
  </defs>
  <rect width="100%" height="100%" fill="url(#chat-bg)" />
</svg>
